<mxfile host="app.diagrams.net" modified="2023-08-16T08:10:22.167Z" agent="Mozilla/5.0 (Macintosh; Intel Mac OS X 10_15_7) AppleWebKit/537.36 (KHTML, like Gecko) Chrome/114.0.0.0 Safari/537.36" etag="oH2EG7p7qewsVQLyvgkd" version="21.6.8" type="github">
  <diagram name="第 1 页" id="CiiBRZctD_MiHNb_AMjR">
    <mxGraphModel dx="985" dy="536" grid="1" gridSize="10" guides="1" tooltips="1" connect="1" arrows="1" fold="1" page="1" pageScale="1" pageWidth="827" pageHeight="1169" math="0" shadow="0">
      <root>
        <mxCell id="0" />
        <mxCell id="1" parent="0" />
        <mxCell id="A4mq102dQQTEhhLru-mC-1" value="互联网" style="ellipse;shape=cloud;whiteSpace=wrap;html=1;fillColor=#cce5ff;strokeColor=#36393d;" parent="1" vertex="1">
          <mxGeometry x="10" y="210" width="120" height="80" as="geometry" />
        </mxCell>
        <mxCell id="A4mq102dQQTEhhLru-mC-2" value="" style="rounded=0;whiteSpace=wrap;html=1;" parent="1" vertex="1">
          <mxGeometry x="150" y="200" width="510" height="100" as="geometry" />
        </mxCell>
        <mxCell id="A4mq102dQQTEhhLru-mC-3" value="" style="shape=mxgraph.cisco.people.androgenous_person;sketch=0;html=1;pointerEvents=1;dashed=0;fillColor=#036897;strokeColor=#ffffff;strokeWidth=2;verticalLabelPosition=bottom;verticalAlign=top;align=center;outlineConnect=0;" parent="1" vertex="1">
          <mxGeometry x="701" y="228" width="50" height="55" as="geometry" />
        </mxCell>
        <mxCell id="A4mq102dQQTEhhLru-mC-6" value="" style="shape=mxgraph.cisco.people.pc_man;sketch=0;html=1;pointerEvents=1;dashed=0;fillColor=#036897;strokeColor=#ffffff;strokeWidth=2;verticalLabelPosition=bottom;verticalAlign=top;align=center;outlineConnect=0;" parent="1" vertex="1">
          <mxGeometry x="742" y="170" width="50" height="69" as="geometry" />
        </mxCell>
        <mxCell id="A4mq102dQQTEhhLru-mC-8" value="" style="shape=mxgraph.cisco.people.sitting_woman;sketch=0;html=1;pointerEvents=1;dashed=0;fillColor=#036897;strokeColor=#ffffff;strokeWidth=2;verticalLabelPosition=bottom;verticalAlign=top;align=center;outlineConnect=0;" parent="1" vertex="1">
          <mxGeometry x="752" y="260" width="40" height="60" as="geometry" />
        </mxCell>
        <mxCell id="A4mq102dQQTEhhLru-mC-10" value="爬虫爬取" style="rounded=1;whiteSpace=wrap;html=1;fillColor=#fff2cc;strokeColor=#d6b656;gradientColor=#ffd966;" parent="1" vertex="1">
          <mxGeometry x="170" y="230" width="70" height="40" as="geometry" />
        </mxCell>
        <mxCell id="A4mq102dQQTEhhLru-mC-12" value="解析" style="rounded=1;whiteSpace=wrap;html=1;fillColor=#f5f5f5;strokeColor=#666666;gradientColor=#b3b3b3;" parent="1" vertex="1">
          <mxGeometry x="270" y="230" width="70" height="40" as="geometry" />
        </mxCell>
        <mxCell id="A4mq102dQQTEhhLru-mC-13" value="收录" style="rounded=1;whiteSpace=wrap;html=1;fillColor=#d5e8d4;strokeColor=#82b366;gradientColor=#97d077;" parent="1" vertex="1">
          <mxGeometry x="370" y="230" width="70" height="40" as="geometry" />
        </mxCell>
        <mxCell id="A4mq102dQQTEhhLru-mC-14" value="排序算法" style="rounded=1;whiteSpace=wrap;html=1;fillColor=#ffcd28;strokeColor=#d79b00;gradientColor=#ffa500;" parent="1" vertex="1">
          <mxGeometry x="470" y="230" width="70" height="40" as="geometry" />
        </mxCell>
        <mxCell id="A4mq102dQQTEhhLru-mC-15" value="SERP" style="rounded=1;whiteSpace=wrap;html=1;fillColor=#dae8fc;strokeColor=#6c8ebf;gradientColor=#7ea6e0;" parent="1" vertex="1">
          <mxGeometry x="570" y="230" width="70" height="40" as="geometry" />
        </mxCell>
        <mxCell id="A4mq102dQQTEhhLru-mC-17" value="" style="shape=flexArrow;endArrow=classic;startArrow=classic;html=1;rounded=0;endWidth=5;endSize=7.4;startWidth=5;startSize=7.4;fillColor=#cce5ff;strokeColor=#36393d;" parent="1" edge="1">
          <mxGeometry width="100" height="100" relative="1" as="geometry">
            <mxPoint x="641" y="249.5" as="sourcePoint" />
            <mxPoint x="701" y="249.5" as="targetPoint" />
            <Array as="points">
              <mxPoint x="671" y="249.5" />
            </Array>
          </mxGeometry>
        </mxCell>
        <mxCell id="A4mq102dQQTEhhLru-mC-18" value="" style="shape=flexArrow;endArrow=classic;html=1;rounded=0;endWidth=6;endSize=6.4;exitX=0.94;exitY=0.49;exitDx=0;exitDy=0;exitPerimeter=0;entryX=0;entryY=0.5;entryDx=0;entryDy=0;fillColor=#ffcc99;strokeColor=#36393d;" parent="1" target="A4mq102dQQTEhhLru-mC-10" edge="1">
          <mxGeometry width="50" height="50" relative="1" as="geometry">
            <mxPoint x="109.99999999999996" y="249.50000000000006" as="sourcePoint" />
            <mxPoint x="157.2" y="249.8" as="targetPoint" />
          </mxGeometry>
        </mxCell>
        <mxCell id="A4mq102dQQTEhhLru-mC-22" value="" style="endArrow=classic;html=1;rounded=0;" parent="1" edge="1">
          <mxGeometry width="50" height="50" relative="1" as="geometry">
            <mxPoint x="240" y="249.5" as="sourcePoint" />
            <mxPoint x="270" y="249.5" as="targetPoint" />
          </mxGeometry>
        </mxCell>
        <mxCell id="A4mq102dQQTEhhLru-mC-25" value="" style="endArrow=classic;html=1;rounded=0;" parent="1" edge="1">
          <mxGeometry width="50" height="50" relative="1" as="geometry">
            <mxPoint x="340" y="249.5" as="sourcePoint" />
            <mxPoint x="370" y="249.5" as="targetPoint" />
          </mxGeometry>
        </mxCell>
        <mxCell id="A4mq102dQQTEhhLru-mC-26" value="" style="endArrow=classic;html=1;rounded=0;" parent="1" edge="1">
          <mxGeometry width="50" height="50" relative="1" as="geometry">
            <mxPoint x="440" y="249.5" as="sourcePoint" />
            <mxPoint x="470" y="249.5" as="targetPoint" />
          </mxGeometry>
        </mxCell>
        <mxCell id="A4mq102dQQTEhhLru-mC-27" value="" style="endArrow=classic;html=1;rounded=0;" parent="1" edge="1">
          <mxGeometry width="50" height="50" relative="1" as="geometry">
            <mxPoint x="540" y="249.5" as="sourcePoint" />
            <mxPoint x="570" y="249.5" as="targetPoint" />
          </mxGeometry>
        </mxCell>
        <mxCell id="A4mq102dQQTEhhLru-mC-29" value="" style="verticalLabelPosition=bottom;verticalAlign=top;html=1;shadow=0;dashed=0;strokeWidth=1;shape=mxgraph.android.phone2;strokeColor=#6c8ebf;fillColor=#dae8fc;fontSize=8;" parent="1" vertex="1">
          <mxGeometry x="700" y="172" width="30" height="50" as="geometry" />
        </mxCell>
        <mxCell id="A4mq102dQQTEhhLru-mC-30" value="用户" style="text;html=1;strokeColor=none;fillColor=none;align=center;verticalAlign=middle;whiteSpace=wrap;rounded=0;" parent="1" vertex="1">
          <mxGeometry x="705" y="306" width="60" height="20" as="geometry" />
        </mxCell>
        <mxCell id="3ekw0mQEJzHZ18O52kSr-1" value="搜索引擎" style="text;html=1;strokeColor=none;fillColor=none;align=center;verticalAlign=middle;whiteSpace=wrap;rounded=0;fontSize=16;" vertex="1" parent="1">
          <mxGeometry x="310" y="198" width="120" height="30" as="geometry" />
        </mxCell>
      </root>
    </mxGraphModel>
  </diagram>
</mxfile>
